<svg xmlns="http://www.w3.org/2000/svg" width="36" height="36" fill="none"><g filter="url(#a)"><g clip-path="url(#b)"><rect width="30" height="30" x="3" y="1" fill="#56566B" fill-opacity=".5" rx="4"/><path fill="#F6F7FB" d="m25.308 11.023-.397-1.191a1.109 1.109 0 0 0-1.053-.759h-3.34V7.986A.987.987 0 0 0 19.532 7h-3.058a.987.987 0 0 0-.986.986v1.087h-3.34c-.478 0-.901.305-1.053.759l-.397 1.191a.894.894 0 0 0 .846 1.174h.415l.915 11.307c.067.839.78 1.496 1.62 1.496h7.203c.84 0 1.553-.657 1.62-1.496l.915-11.307h.23a.894.894 0 0 0 .846-1.174Zm-8.765-2.968h2.92v1.018h-2.92V8.055Zm5.723 15.364a.575.575 0 0 1-.57.526h-7.201a.575.575 0 0 1-.57-.526l-.908-11.222h10.157l-.908 11.222ZM11.77 11.143l.326-.977a.055.055 0 0 1 .052-.038h11.71c.024 0 .045.015.052.038l.326.977H11.77Z"/><path fill="#F6F7FB" d="M20.584 23.381h.028a.527.527 0 0 0 .527-.5l.495-9.505a.527.527 0 0 0-1.054-.055l-.495 9.506a.527.527 0 0 0 .5.554ZM14.891 22.884a.527.527 0 0 0 1.053-.058l-.519-9.506a.527.527 0 1 0-1.053.057l.519 9.507ZM18.009 23.382a.527.527 0 0 0 .527-.527v-9.506a.527.527 0 0 0-1.054 0v9.506c0 .291.236.527.527.527Z"/></g></g><defs><clipPath id="b"><rect width="30" height="30" x="3" y="1" fill="#fff" rx="4"/></clipPath><filter id="a" width="36" height="36" x="0" y="0" color-interpolation-filters="sRGB" filterUnits="userSpaceOnUse"><feFlood flood-opacity="0" result="BackgroundImageFix"/><feColorMatrix in="SourceAlpha" result="hardAlpha" values="0 0 0 0 0 0 0 0 0 0 0 0 0 0 0 0 0 0 127 0"/><feOffset dy="2"/><feGaussianBlur stdDeviation="1.5"/><feComposite in2="hardAlpha" operator="out"/><feColorMatrix values="0 0 0 0 0 0 0 0 0 0 0 0 0 0 0 0 0 0 0.15 0"/><feBlend in2="BackgroundImageFix" result="effect1_dropShadow_15_550"/><feBlend in="SourceGraphic" in2="effect1_dropShadow_15_550" result="shape"/></filter></defs></svg>